# xmcd
#
# Track frame offsets: 
#        150
#        17250
#        37575
#        57150
#        74850
#        92550
#        112425
#        135000
#        164175
#        183075
#        201075
#        221925
#        242400
#        261000
#        283200
#        301650
#
# Disc length: 4301 seconds
#
# Revision: 0
# Processed by: cddbd v1.5.1PL0 Copyright (c) Steve Scherf et al.
# Submitted via: ExactAudioCopy v0.95a5
#
DISCID=e110cb10
DTITLE=陳慧嫻 - welcome back
DYEAR=1995
DGENRE=
TTITLE0=今天夜里總下雨
TTITLE1=還是喜歡你嶂
TTITLE2=今天的愛人是誰
TTITLE3=從來是一對
TTITLE4=人生何處不相逄
TTITLE5=還是告別吧
TTITLE6=千千闕歌
TTITLE7=戀戀風塵
TTITLE8=紅茶館
TTITLE9=放不開你下我
TTITLE10=留戀
TTITLE11=拋拋
TTITLE12=不清晰的戀愛
TTITLE13=不想你還想你
TTITLE14=多少柔多少夢
TTITLE15=歸來吧
EXTD=
EXTT0=
EXTT1=
EXTT2=
EXTT3=
EXTT4=
EXTT5=
EXTT6=
EXTT7=
EXTT8=
EXTT9=
EXTT10=
EXTT11=
EXTT12=
EXTT13=
EXTT14=
EXTT15=
PLAYORDER=
